<svg width="162" height="162" viewBox="0 0 162 162" fill="none" xmlns="http://www.w3.org/2000/svg">
<g clip-path="url(#clip0_405_12)">
<mask id="mask0_405_12" style="mask-type:alpha" maskUnits="userSpaceOnUse" x="0" y="0" width="162" height="162">
<path d="M56.4799 0H105.52C121.784 0 129.913 0 138.668 2.7675C148.226 6.24645 155.754 13.7741 159.232 23.3321C162 32.0854 162 40.2178 162 56.4799V105.52C162 121.784 162 129.913 159.232 138.668C155.754 148.226 148.226 155.754 138.668 159.231C129.913 162 121.784 162 105.52 162H56.4799C40.2165 162 32.0854 162 23.3321 159.231C13.7741 155.754 6.24645 148.226 2.7675 138.668C0 129.913 0 121.784 0 105.52V56.4799C0 40.2178 0 32.0854 2.7675 23.3321C6.24645 13.7741 13.7741 6.24645 23.3321 2.7675C32.0854 0 40.2165 0 56.4799 0Z" fill="white"/>
</mask>
<g mask="url(#mask0_405_12)">
<path d="M56.4799 0H105.52C121.784 0 129.913 0 138.668 2.7675C148.226 6.24645 155.754 13.7741 159.232 23.3321C162 32.0854 162 40.2178 162 56.4799V105.52C162 121.784 162 129.913 159.232 138.668C155.754 148.226 148.226 155.754 138.668 159.231C129.913 162 121.784 162 105.52 162H56.4799C40.2165 162 32.0854 162 23.3321 159.231C13.7741 155.754 6.24645 148.226 2.7675 138.668C0 129.913 0 121.784 0 105.52V56.4799C0 40.2178 0 32.0854 2.7675 23.3321C6.24645 13.7741 13.7741 6.24645 23.3321 2.7675C32.0854 0 40.2165 0 56.4799 0Z" fill="#F4333D"/>
<path d="M80.5 131.892C72.384 131.892 65.3653 130.146 59.4438 126.655C53.5571 123.128 49.0115 118.227 45.8069 111.949C42.6023 105.637 41 98.3198 41 89.9973C41 81.6044 42.6023 74.2694 45.8069 67.9923C48.3032 63.0751 52.7494 58.3077 57.3755 54.7902C59.5207 53.1591 62.5037 53.8218 64.1749 55.9359C69.7538 62.9933 73.6174 65.1888 80.6045 65.1888C87.5887 65.1888 91.865 62.5642 97.522 55.8317C99.2136 53.8185 102.124 53.2101 104.196 54.8298C108.665 58.3242 112.684 63.0501 115.193 67.9923C118.398 74.2694 120 81.6044 120 89.9973C120 98.3198 118.398 105.637 115.193 111.949C111.989 118.227 107.425 123.128 101.504 126.655C95.6173 130.146 88.616 131.892 80.5 131.892ZM80.6045 114.436C84.2967 114.436 87.3794 113.378 89.8525 111.262C92.3256 109.111 94.1892 106.184 95.4431 102.481C96.7319 98.7782 97.3763 94.5641 97.3763 89.8386C97.3763 85.1132 96.7319 80.8991 95.4431 77.1963C94.1892 73.4936 92.3256 70.5666 89.8525 68.4155C87.3794 66.2643 84.2967 65.1888 80.6045 65.1888C76.8774 65.1888 73.7425 66.2643 71.1997 68.4155C68.6918 70.5666 66.7934 73.4936 65.5046 77.1963C64.2507 80.8991 63.6237 85.1132 63.6237 89.8386C63.6237 94.5641 64.2507 98.7782 65.5046 102.481C66.7934 106.184 68.6918 109.111 71.1997 111.262C73.7425 113.378 76.8774 114.436 80.6045 114.436Z" fill="white"/>
<path d="M94.2855 44.8628C94.2855 52.6703 88.2638 58.7257 80.5 58.7257C72.7362 58.7257 66.7221 52.6703 66.7146 44.8628C66.7146 37.0554 72.7362 31 80.5 31C88.2638 31 94.2855 37.0554 94.2855 44.8628Z" fill="white"/>
</g>
</g>
<defs>
<clipPath id="clip0_405_12">
<rect width="162" height="162" fill="white"/>
</clipPath>
</defs>
</svg>
