<svg width="1307" height="240" viewBox="0 0 1307 240" fill="none" xmlns="http://www.w3.org/2000/svg">
<path d="M856.561 117.944C856.561 161.158 826.897 190.892 790.177 190.892C770.966 190.892 755.72 185.275 744.696 172.662V239.722H702.323V47.7976H734.818C741.032 47.7976 744.71 51.4518 744.71 57.6232V66.0413C755.16 51.736 770.98 44.9961 790.191 44.9961C826.911 44.9961 856.561 74.7301 856.561 117.944ZM813.627 117.944C813.627 96.8987 798.654 82.0249 778.883 82.0249C758.827 82.0249 743.294 96.8987 743.294 117.944C743.294 138.989 758.827 153.863 778.883 153.863C798.665 153.85 813.627 138.976 813.627 117.944ZM1028.87 47.7976V188.077H986.492V169.846C976.042 184.152 960.222 190.892 941.011 190.892C904.291 190.892 874.627 161.158 874.627 117.944C874.627 74.7301 904.291 44.9961 941.011 44.9961C960.222 44.9961 976.042 51.736 986.492 66.0413V57.6232C986.492 51.4518 990.17 47.7976 996.385 47.7976H1028.87ZM987.908 117.944C987.908 96.8987 972.375 82.0249 952.319 82.0249C932.548 82.0249 917.575 96.8987 917.575 117.944C917.575 138.989 932.548 153.863 952.319 153.863C972.375 153.85 987.908 138.976 987.908 117.944ZM1114.75 190.892C1150.62 190.892 1172.37 172.378 1172.37 143.483C1172.37 123.276 1159.94 109.54 1134.23 103.923L1109.09 98.3063C1099.49 96.0597 1094.4 92.9739 1094.4 87.3707C1094.4 81.7678 1099.2 78.1135 1109.94 78.1135C1122.94 78.1135 1136.49 84.2852 1145.81 92.7031L1167 61.8458C1156.83 52.8728 1135.93 45.0096 1109.94 45.0096C1076.32 45.0096 1053.73 61.5616 1053.73 89.6176C1053.73 110.094 1065.31 124.968 1089.89 130.585L1115.03 136.472C1127.46 139.273 1131.41 142.928 1131.41 147.692C1131.41 153.863 1126.33 157.233 1114.75 157.233C1101.19 157.233 1084.81 151.616 1071.53 140.397L1050.34 171.254C1060.23 180.227 1082.82 190.892 1114.75 190.892ZM1248.63 190.892C1284.5 190.892 1306.25 172.378 1306.25 143.483C1306.25 123.276 1293.82 109.54 1268.11 103.923L1242.97 98.3063C1233.37 96.0597 1228.29 92.9739 1228.29 87.3707C1228.29 81.7678 1233.08 78.1135 1243.82 78.1135C1256.82 78.1135 1270.37 84.2852 1279.69 92.7031L1300.88 61.8458C1290.72 52.8728 1269.82 45.0096 1243.82 45.0096C1210.21 45.0096 1187.61 61.5616 1187.61 89.6176C1187.61 110.094 1199.2 124.968 1223.78 130.585L1248.91 136.472C1261.34 139.273 1265.29 142.928 1265.29 147.692C1265.29 153.863 1260.21 157.233 1248.63 157.233C1235.07 157.233 1218.69 151.616 1205.41 140.397L1184.22 171.254C1194.11 180.227 1216.72 190.892 1248.63 190.892Z" fill="#F4333D"/>
<path d="M5.46548 190.795C2.44697 190.795 0 188.348 0 185.33V53.1644C0 50.1459 2.44698 47.6989 5.46548 47.6989H32.3581C35.3766 47.6989 37.8236 50.1459 37.8236 53.1644V71.9627C37.8236 72.5056 38.2638 72.9457 38.8067 72.9457V72.9457C39.2227 72.9457 39.5928 72.6832 39.7378 72.2933C42.7422 64.2174 47.6317 57.8204 54.4064 53.1023C61.3625 48.2579 69.6849 45.8357 79.3737 45.8357C89.1867 45.8357 97.5402 48.289 104.434 53.1955C111.121 57.8947 115.646 64.2301 118.009 72.2018C118.139 72.6401 118.539 72.9457 118.996 72.9457V72.9457C119.426 72.9457 119.808 72.6746 119.959 72.2723C122.924 64.388 128.121 58.0601 135.55 53.2887C143.252 48.32 152.35 45.8357 162.847 45.8357C176.2 45.8357 187.038 50.0901 195.36 58.5989C203.744 67.0455 207.937 79.0323 207.937 94.5592V185.33C207.937 188.348 205.49 190.795 202.471 190.795H173.809C170.79 190.795 168.343 188.348 168.343 185.33V102.385C168.343 94.4351 166.231 88.4727 162.008 84.4978C157.785 80.5229 152.506 78.5355 146.171 78.5355C138.966 78.5355 133.345 80.8335 129.308 85.4294C125.271 89.9633 123.253 95.9567 123.253 103.41V185.33C123.253 188.348 120.806 190.795 117.787 190.795H90.2426C87.2241 190.795 84.7771 188.348 84.7771 185.33V101.546C84.7771 94.5282 82.7586 88.9385 78.7216 84.7773C74.7467 80.6161 69.4986 78.5355 62.9773 78.5355C58.5676 78.5355 54.5927 79.6534 51.0526 81.8893C47.5745 84.0631 44.8107 87.1374 42.7612 91.1123C40.7116 95.0251 39.6869 99.6211 39.6869 104.9V185.33C39.6869 188.348 37.2399 190.795 34.2214 190.795H5.46548Z" fill="#F4333D"/>
<path d="M303.94 193.59C289.469 193.59 276.954 190.516 266.396 184.367C255.899 178.156 247.794 169.523 242.08 158.468C236.367 147.351 233.51 134.463 233.51 119.806C233.51 105.024 236.367 92.106 242.08 81.0508C247.043 71.3949 256.328 62.067 265.561 55.7528C267.878 54.1678 270.989 54.8449 272.693 57.077C283.841 71.6858 290.795 76.1132 304.126 76.1132C317.449 76.1132 325.245 70.8229 336.442 57.0435C338.169 54.9178 341.201 54.2996 343.451 55.8613C352.498 62.1401 360.818 71.3594 365.799 81.0508C371.513 92.106 374.37 105.024 374.37 119.806C374.37 134.463 371.513 147.351 365.799 158.468C360.085 169.523 351.949 178.156 341.391 184.367C330.895 190.516 318.411 193.59 303.94 193.59ZM304.126 162.847C310.71 162.847 316.206 160.983 320.616 157.257C325.025 153.468 328.348 148.314 330.584 141.792C332.882 135.271 334.031 127.849 334.031 119.527C334.031 111.204 332.882 103.782 330.584 97.261C328.348 90.7396 325.025 85.5847 320.616 81.7961C316.206 78.0076 310.71 76.1132 304.126 76.1132C297.481 76.1132 291.891 78.0076 287.357 81.7961C282.885 85.5847 279.5 90.7396 277.202 97.261C274.967 103.782 273.849 111.204 273.849 119.527C273.849 127.849 274.967 135.271 277.202 141.792C279.5 148.314 282.885 153.468 287.357 157.257C291.891 160.983 297.481 162.847 304.126 162.847Z" fill="black"/>
<path d="M464.83 193.59C450.173 193.59 437.565 190.485 427.006 184.274C416.51 178.001 408.436 169.306 402.784 158.189C397.195 147.071 394.4 134.277 394.4 119.806C394.4 105.149 397.226 92.2923 402.877 81.2371C408.591 70.1198 416.696 61.4558 427.193 55.2451C437.689 48.9722 450.173 45.8357 464.644 45.8357C477.127 45.8357 488.058 48.1026 497.437 52.6365C506.815 57.1704 514.237 63.5364 519.702 71.7347C524.202 78.485 527.039 86.2037 528.213 94.8909C528.632 97.9897 526.117 100.615 522.99 100.615H496.005C493.295 100.615 491.047 98.6109 490.31 96.0031C488.885 90.9563 486.416 86.7486 482.903 83.3799C478.432 78.9702 472.562 76.7654 465.296 76.7654C459.147 76.7654 453.775 78.4423 449.179 81.7961C444.645 85.0878 441.105 89.9012 438.558 96.2362C436.012 102.571 434.739 110.241 434.739 119.247C434.739 128.377 435.981 136.14 438.465 142.537C441.012 148.935 444.583 153.81 449.179 157.164C453.775 160.518 459.147 162.195 465.296 162.195C469.83 162.195 473.898 161.263 477.5 159.4C481.164 157.536 484.177 154.835 486.537 151.295C488.184 148.845 489.443 146.066 490.315 142.956C491.046 140.348 493.294 138.345 496.003 138.345H522.954C526.094 138.345 528.613 140.992 528.177 144.102C526.972 152.688 524.178 160.396 519.795 167.225C514.516 175.486 507.219 181.945 497.902 186.603C488.586 191.261 477.562 193.59 464.83 193.59Z" fill="#F4333D"/>
<path d="M599.715 138.65C596.387 142.449 590.128 140.089 590.138 135.038L590.194 105.954C590.199 103.776 591.966 102.012 594.144 102.012V102.012C595.307 102.012 596.411 101.499 597.162 100.61L640.176 49.6395C641.215 48.409 642.743 47.6989 644.353 47.6989H675.495C680.163 47.6989 682.683 53.1732 679.647 56.7191L627.426 117.709C626.388 118.922 624.871 119.62 623.274 119.62H618.859C617.284 119.62 615.785 120.299 614.748 121.484L599.715 138.65ZM559.614 190.795C556.596 190.795 554.149 188.348 554.149 185.33V5.46568C554.149 2.44718 556.596 0.000187642 559.614 0.000187642H588.37C591.389 0.000187642 593.835 2.44717 593.835 5.46567V185.33C593.835 188.348 591.389 190.795 588.37 190.795H559.614ZM646.487 190.795C644.672 190.795 642.975 189.894 641.958 188.389L603.925 132.097C602.493 129.977 602.723 127.147 604.479 125.286L623.288 105.351C625.678 102.818 629.794 103.136 631.767 106.005L684.184 182.233C686.677 185.859 684.081 190.795 679.68 190.795H646.487Z" fill="#F4333D"/>
<path d="M328.52 40.3153C328.52 54.0657 317.783 64.7305 303.94 64.7305C290.097 64.7305 279.373 54.0657 279.36 40.3153C279.36 26.5648 290.097 15.9001 303.94 15.9001C317.783 15.9001 328.52 26.5648 328.52 40.3153Z" fill="black"/>
</svg>
